<?xml version="1.0" encoding="utf-8"?>
<!-- Generator: Adobe Illustrator 21.1.0, SVG Export Plug-In . SVG Version: 6.00 Build 0)  -->
<svg version="1.1" id="color" xmlns="http://www.w3.org/2000/svg" xmlns:xlink="http://www.w3.org/1999/xlink" x="0px" y="0px"
	 viewBox="0 0 643 154.2" style="enable-background:new 0 0 643 154.2;" xml:space="preserve">
<style type="text/css">
	.st0{fill:none;}
	.st1{fill:#75CABB;}
	.st2{fill:#FEC662;}
	.st3{fill:#EF4B7E;}
	.st4{fill:#009D85;}
	.st5{fill:#BE9C62;}
	.st6{fill:#FFFFFF;}
</style>
<rect x="33.4" y="29.4" class="st0" width="92.8" height="97.5"/>
<polygon class="st1" points="155.3,5.5 155.3,5.5 155.3,5.5 "/>
<polygon class="st2" points="33.4,29.4 4.1,29.4 4.1,150.6 33.4,126.9 "/>
<polygon class="st3" points="33.4,126.9 4.1,150.6 126.2,150.6 126.2,126.9 "/>
<polygon class="st1" points="126.2,29.4 126.2,150.6 155.6,126.9 155.3,5.5 "/>
<polygon class="st4" points="126.2,29.4 155.3,5.5 33.4,5.6 33.4,29.4 "/>
<polygon class="st5" points="33.4,5.6 4.1,29.4 33.4,29.4 "/>
<path class="st6" d="M179.8,25.7h88.2l-65.4,89.4h65.4v13h-92.4L241,38.7h-61.3V25.7z"/>
<path class="st6" d="M281.9,25.8h58v13h-43.4V70h41.9v13.1h-41.9v31.8h44.8v13h-59.4V25.8z"/>
<path class="st6" d="M437.5,25.8h13.9v102.3h-12.6l-68.4-78.8v78.8h-13.8V25.8h11.9l69,79.5V25.8z"/>
<path class="st6" d="M537.6,25.8h14.6l-43.3,102.8h-3.3L461.5,25.8h14.7L507,97.7L537.6,25.8z"/>
<path class="st6" d="M583.3,25.2h10.3l45.9,102.9h-15l-13.6-30.3h-43.7l-12.8,30.3h-15.1L583.3,25.2z M604.8,84.8l-16.5-37.1
	L573,84.8H604.8z"/>
</svg>
